# xmcd
#
# Track frame offsets:
# 150
# 19299
# 34766
# 51661
# 73332
# 89895
# 108676
# 126342
# 143295
# 165603
#
# Disc length: 2452 seconds
#
# Revision: 0
# Processed by: cddbd v1.5.2PL0 Copyright (c) Steve Scherf et al.
# Submitted via: Audion 3.0.2 (http://www.panic.com/audion/)
#
DISCID=9909920a
DTITLE=Marco Antonio Solis - Corazón de mi alma
DYEAR=1900
DGENRE=
TTITLE0=Antes de que te vayas
TTITLE1=Quien se enamoro
TTITLE2=Te voy a esperar
TTITLE3=Hay veces
TTITLE4=Pidemelo todo
TTITLE5=Extrañandote
TTITLE6=Dios bendiga nuestro amor
TTITLE7=Ojala
TTITLE8=Yo creia que si
TTITLE9=No puedo olvidarla
EXTD=
EXTT0=
EXTT1=
EXTT2=
EXTT3=
EXTT4=
EXTT5=
EXTT6=
EXTT7=
EXTT8=
EXTT9=
PLAYORDER=
